#!OML:ASF F:\VICON\USERDATA\INSTALL\rory3\rory3.ASF
:FULLY-SPECIFIED
:DEGREES
110
root 0.807052 18.6854 22.7773 4.08805 1.59059 6.1532
lowerback 12.2994 -4.74332 -4.43731
upperback -0.368088 -6.96847 -0.294045
thorax -6.77523 -3.25329 3.38977
lowerneck -7.51631 2.93819 -0.160398
upperneck -6.19483 3.80921 -3.21915
head -0.606517 1.90456 -0.894285
rclavicle -1.00386e-014 -8.74653e-015
rhumerus -61.5617 6.54378 -81.8764
rradius 82.2619
rwrist -0.929985
rhand -44.6465 38.3259
rfingers 7.12502
rthumb -17.4435 9.08859
lclavicle -1.00386e-014 -8.74653e-015
lhumerus -25.2463 -26.0662 90.0016
lradius 120.752
lwrist 23.3293
lhand -37.3874 7.32326
lfingers 7.12502
lthumb -10.4484 37.0436
rfemur -35.8427 5.86055 12.3123
rtibia 30.9166
rfoot 3.68218 -8.0977
rtoes -6.12007
lfemur 29.9656 -6.5811 -32.6558
ltibia 19.0255
lfoot 34.7972 2.06851
ltoes -6.55662
111
root 0.819528 18.654 23.3337 3.80796 1.62523 6.75183
lowerback 12.4483 -4.7655 -4.67062
upperback -0.214915 -7.04444 -0.459019
thorax -6.68269 -3.29027 3.3624
lowerneck -7.44627 2.97507 -0.425476
upperneck -6.72145 3.86749 -2.99732
head -0.789158 1.94487 -0.789302
rclavicle 4.25896e-014 -1.86858e-014
rhumerus -60.5025 6.4282 -81.9549
rradius 82.4771
rwrist -1.54332
rhand -44.3576 38.5843
rfingers 7.12502
rthumb -17.1654 9.32249
lclavicle 4.25896e-014 -1.86858e-014
lhumerus -26.9053 -26.2151 90.7038
lradius 119.966
lwrist 22.9126
lhand -37.1502 6.75403
lfingers 7.12502
lthumb -10.2195 36.4858
rfemur -34.3043 6.04007 11.7345
rtibia 27.94
rfoot 2.72464 -9.60135
rtoes -9.80228
lfemur 28.4501 -7.21251 -33.8626
ltibia 24.8756
lfoot 34.146 2.29652
ltoes -7.6949
112
root 0.819444 18.6281 23.876 3.82599 1.37111 6.66002
lowerback 12.253 -4.65564 -4.46694
upperback -0.111931 -6.85069 -0.404714
thorax -6.49542 -3.21089 3.25095
lowerneck -7.15263 2.89594 -0.448386
upperneck -7.29356 3.7427 -3.04998
head -1.01509 1.89167 -0.816925
rclavicle -7.59854e-014 1.82882e-014
rhumerus -59.4709 6.32867 -82.1006
rradius 82.7032
rwrist -1.87402
rhand -44.3421 37.3148
rfingers 7.12502
rthumb -17.1505 8.05174
lclavicle -7.59854e-014 1.82882e-014
lhumerus -28.5329 -26.1536 91.3333
lradius 118.966
lwrist 22.3668
lhand -37.1924 3.43518
lfingers 7.12502
lthumb -10.2602 33.1649
rfemur -33.2459 6.7181 12.0018
rtibia 25.5042
rfoot 3.93237 -11.8907
rtoes -13.3583
lfemur 26.2615 -6.5969 -33.5396
ltibia 30.8289
lfoot 33.485 1.45933
ltoes -9.13843
113
root 0.811655 18.5978 24.3933 4.09476 0.704509 5.96114
lowerback 11.8375 -4.37593 -3.83681
upperback -0.0454371 -6.35345 -0.173756
thorax -6.271 -2.99444 3.02518
lowerneck -6.6279 2.74973 -0.529868
upperneck -7.97505 3.5281 -3.04934
head -1.31882 1.79821 -0.825186
rclavicle 3.62782e-014 -1.98785e-015
rhumerus -58.3335 6.18499 -82.2616
rradius 82.8645
rwrist -2.20969
rhand -44.2329 36.9362
rfingers 7.12502
rthumb -17.0454 7.66404
lclavicle 3.62782e-014 -1.98785e-015
lhumerus -29.8338 -26.2661 91.7454
lradius 117.859
lwrist 21.9963
lhand -37.196 1.66198
lfingers 7.12502
lthumb -10.2637 31.3916
rfemur -32.5637 7.5333 13.104
rtibia 23.5398
rfoot 4.54335 -14.274
rtoes -12.3379
lfemur 23.554 -5.66161 -32.5038
ltibia 36.8919
lfoot 33.1128 1.05819
ltoes -8.60369
114
root 0.815246 18.5474 24.9203 3.97196 0.102803 5.54751
lowerback 11.5435 -4.1645 -3.65029
upperback 0.305482 -6.00606 0.100907
thorax -5.7474 -2.84826 3.10927
lowerneck -6.38915 2.75054 -0.645472
upperneck -8.71909 3.50457 -3.17387
head -1.59538 1.80102 -0.860924
rclavicle 5.60573e-014 -1.03368e-014
rhumerus -56.7172 6.45952 -82.3365
rradius 83.1409
rwrist -2.71211
rhand -44.2367 37.3731
rfingers 7.12502
rthumb -17.0491 8.10127
lclavicle 5.60573e-014 -1.03368e-014
lhumerus -30.734 -26.0839 92.1359
lradius 116.637
lwrist 22.3032
lhand -37.0789 3.23157
lfingers 7.12502
lthumb -10.1508 32.9667
rfemur -31.2692 7.14642 14.3456
rtibia 21.8074
rfoot 5.02745 -15.5311
rtoes -14.1611
lfemur 21.3183 -4.51531 -31.7633
ltibia 42.9719
lfoot 33.1533 0.966166
ltoes -8.1408
115
root 0.81695 18.4739 25.4535 3.66704 -0.646936 5.29768
lowerback 11.8349 -3.83091 -3.41269
upperback 0.354589 -5.53645 0.177279
thorax -5.90721 -2.61837 3.01008
lowerneck -6.06246 2.6687 -0.616403
upperneck -8.90268 3.37731 -3.30463
head -1.70827 1.74345 -0.91615
rclavicle -8.88567e-014 4.77083e-015
rhumerus -55.5313 6.55113 -82.4945
rradius 83.5537
rwrist -3.37001
rhand -43.8542 37.284
rfingers 7.12502
rthumb -16.6808 7.98073
lclavicle -8.88567e-014 4.77083e-015
lhumerus -32.4787 -26.0839 92.7964
lradius 115.481
lwrist 23.2042
lhand -36.9062 4.67411
lfingers 7.12502
lthumb -9.9841 34.4173
rfemur -29.724 6.16496 15.6876
rtibia 20.4142
rfoot 6.21662 -14.1265
rtoes -15.7762
lfemur 19.2553 -3.0069 -31.0793
ltibia 48.9481
lfoot 33.5115 1.0592
ltoes -9.45347
116
root 0.814202 18.3794 25.9797 3.26498 -1.5564 4.58748
lowerback 12.2276 -3.43132 -2.72615
upperback 0.482311 -4.91223 0.323027
thorax -6.07917 -2.32541 2.70827
lowerneck -6.05675 2.539 -0.620978
upperneck -8.75161 3.20708 -3.34047
head -1.66258 1.65774 -0.925058
rclavicle 1.87852e-014 9.54166e-015
rhumerus -54.245 6.63813 -82.7456
rradius 84.1765
rwrist -4.03734
rhand -43.4575 36.9195
rfingers 7.12502
rthumb -16.2989 7.58453
lclavicle 1.87852e-014 9.54166e-015
lhumerus -34.2893 -25.9999 93.5011
lradius 114.239
lwrist 23.7186
lhand -37.0528 5.21901
lfingers 7.12502
lthumb -10.1256 34.9554
rfemur -28.1241 5.37583 17.519
rtibia 19.9002
rfoot 7.11632 -12.1216
rtoes -15.1218
lfemur 17.3013 -1.25655 -29.7489
ltibia 54.8094
lfoot 33.5487 1.62712
ltoes -7.93887
